# xmcd
#
# Track frame offsets: 
#        150
#        20795
#        45600
#        65420
#        85880
#        109450
#        149095
#        185587
#        205232
#        227787
#        248622
#        276960
#        298970
#        319862
#
# Disc length: 4602 seconds
#
# Revision: 1
# Processed by: cddbd v1.5.2PL0 Copyright (c) Steve Scherf et al.
# Submitted via: ExactAudioCopyFreeDBPlugin 1.0
#
DISCID=e111f80e
DTITLE=Various Artist - Motown Remixed (UK)
DYEAR=2005
DGENRE=Soul
TTITLE0=The Jackson 5 - I Want You Back (Z-Trip Remix)
TTITLE1=Gladys Knight and The Pips - I Heard it Through the Grapevine (F
TTITLE1=or The Grapes Mix by The Randy Watson Experience)
TTITLE2=Marvin Gaye - Let's Get it On (Paul Simpson and Miles Dalto MPG 
TTITLE2=Groove Mix)
TTITLE3=Eddie Kendricks - Keep on Truckin' (DJ Spinna Remix)
TTITLE4=Edwin Starr - War (King Britt Remix)
TTITLE5=The Temptations - Papa Was a Rolling Stone (DJ Jazzy Jeff and Pe
TTITLE5=te Kuzma Solefull Remix)
TTITLE6=The Supremes - Stoned Love (A Tom Moulton Mix)
TTITLE7=Stevie Wonder - Signed, Sealed, Delivered I'm Yours (DJ Smash 
TTITLE7=Essential Funk Mix)
TTITLE8=Rare Earth - I Just Want to Celebrate (Mocean Worker Remix)
TTITLE9=Undisputed Truth - Smiling Faces Sometimes (Futureshock Main I
TTITLE9=ngredient)
TTITLE10=Gladys Knight and The Pips - Neither One of Us (Wants to Be the
TTITLE10=First to Say Goodbye) (Kenny Dope Mix)
TTITLE11=Diana Ross and The Supremes - My World is Empty Without You (Tr
TTITLE11=anzition Remix)
TTITLE12=The Temptations - Just My Imagination (Running Away with Me) 
TTITLE12=(Easy Mo Bee Remix)
TTITLE13=Smokey Robinson - Quiet Storm (Groove Boutique Remix)
EXTD=
EXTT0=
EXTT1=
EXTT2=
EXTT3=
EXTT4=
EXTT5=
EXTT6=
EXTT7=
EXTT8=
EXTT9=
EXTT10=
EXTT11=
EXTT12=
EXTT13=
PLAYORDER=
